<svg xmlns="http://www.w3.org/2000/svg" data-name="10" viewBox="0 0 4680 3120"><defs><clipPath id="a"><path fill="#f58d4e" d="M1361.119 2065.295h549.917v349.049l-111.959 75.738h-516.988v-339.171l79.03-85.616z" class="colorf58d4e svgShape"/></clipPath><clipPath id="b"><path fill="#21387f" d="M2661.558 2470.613s-23.869-29.172 7.638-42.009 74.682-28.005 77.016-5.834l2.334 22.171s14.003-11.669 31.506 0-5.834 91.02-5.834 91.02l-215.88 8.79c-21.707.885-35.287-23.46-22.884-41.297 10.215-14.69 24.921-26.913 45.056-24.48 46.677 5.642 81.048-8.36 81.048-8.36Z" class="color21387f svgShape"/></clipPath><clipPath id="c"><path fill="#21387f" d="M2980.762 2371.426s-38.509 36.174-18.671 51.344 31.819 39.675-5.679 47.843-63.169 29.173-60.835 57.18c1.852 22.23 99.297 9.167 139.401 2.834a63.089 63.089 0 0 0 32.395-15.431c17.925-16.144 43.816-45.059 33.58-70.255-15.17-37.341-40.841-67.68-40.841-67.68s18.67-54.846-79.35-5.835Z" class="color21387f svgShape"/></clipPath><clipPath id="d"><path fill="#f5934f" d="m2951.589 2332.918 20.377 62.588a30.487 30.487 0 0 0 24.813 20.817c14.695 2.004 33.833 1.238 43.066-13.269a29.554 29.554 0 0 0 3.092-23.873c-13.704-48.525-19-70.769-19-70.769Z" class="colorf5934f svgShape"/></clipPath><clipPath id="e"><path fill="#653e3a" d="M2687.98 1608.691s-28.879 367.56-26.253 430.57 13.042 359.683 13.042 359.683 41.926-23.629 91.892 10.502 9.132-317.677 21.673-414.817 16.45-160.151 16.45-160.151 8.703 157.525 31.276 212.66 95.983 304.548 95.983 304.548 65.738 49.883 112.995-28.88c-26.254-191.655-77.078-312.576-77.078-312.576v-26.103l-1.201-28.88 1.201-314.891Z" class="color653e3a svgShape"/></clipPath><clipPath id="f"><path fill="#ff921f" d="M3046.413 1532.183c-33.59 11.202-53.369 15.473-64.991 16.68-7.317.771-11.413.333-13.688-.367-2.205-.665-2.678-.63-2.608-.07 4.463 34.675 1.33 14.86 7.229 59.303 1.137 8.506 2.608 19.359 4.516 33.414-65.744 86.783-287.516 1.313-287.516 1.313s-10.502 5.251-13.198-49.886c-1.96-40.293-1.05-98.79-.437-127.391a42.06 42.06 0 0 1-5.636 11.167c-5.742 8.279-15.789 17.609-33.048 26.903a190.64 190.64 0 0 1-10.694 5.304c-45.23 20.724-63.416-38.351-70.068-73.359a89.948 89.948 0 0 1 2.398-43.006c16.944-55.557 65.937-214.7 82.215-252.228 19.797-45.668 158.619-43.602 158.619-43.602l121.738-.018s91.037 13.146 125.169 64.624c34.115 51.478 78.75 344.963 0 371.219Z" class="colorff921f svgShape"/></clipPath><clipPath id="g"><path fill="#f5934f" d="M2961.397 991.178c-9.504 22.475-63.87 32.68-63.87 32.68s-5.55 4.446 1.452 61.333c-42.009 63.013-93.644 29.914-93.644 29.914s9.171-27.796 14.738-52.022c2.398-10.502 4.113-20.321 4.113-26.938a40.315 40.315 0 0 1-17.469-.122c-37.913-9.067-44.53-77.35-42.219-97.356 2.626-22.755 30.632-109.03 30.632-109.03 164.535-69.648 149.762 113.406 140.905 132.66 24.505-7.877 34.884 6.406 25.362 28.881Z" class="colorf5934f svgShape"/></clipPath><clipPath id="h"><path fill="#f5934f" d="M2822.424 1412.918a27.863 27.863 0 0 0-13.547-34.946c-20.16-10.124-57.356-27.854-74.135-29.718-23.63-2.626-117.311 31.754-101.102 39.945s76.597-11.94 76.597-11.94-29.757 15.886-14.878 29.823 31.774 9.561 31.774 9.561l1.564 2.553a29.474 29.474 0 0 0 32.278 13.2s2.804 19.203 24.606 14.853c14.145-2.823 30.367-16.742 36.843-33.332Z" class="colorf5934f svgShape"/></clipPath><clipPath id="i"><path fill="none" d="M2473.937 1394.043s-21.88 26.927 0 43.518 5.251 7.614 28.006 23.48 14.878 21.991 31.507 26.367 34.662-7.944 30.432-22.444-19.93 0-19.93 0 22.408-6.488 10.766-18.715-19.593 3.526-40.358 6.152 32.217-28.006 19.09-36.758-40.26 12.253-40.26 12.253 4.377-13.444 3.502-33.853-22.755 0-22.755 0Z"/></clipPath><clipPath id="j"><path fill="#5566ad" d="M1898.679 2106.457h549.917v349.049l-111.959 75.737h-516.988v-339.171l79.03-85.615z" class="color5566ad svgShape"/></clipPath><clipPath id="k"><path fill="#cf443f" d="M1711.791 1852.197h438.445v278.295l-89.264 60.384H1648.78v-270.418l63.011-68.261z" class="colorcf443f svgShape"/></clipPath><clipPath id="l"><path fill="#f7cbc6" d="m1425.862 892.463 269.403-175.458 359.205 63.552 45.591 399.475-269.403 168.344-344.008-75.986-60.788-379.927z" class="colorf7cbc6 svgShape"/></clipPath><clipPath id="m"><path fill="#f7cbc6" d="m1490.526 836.257 49.526 196.434 11.052 5.07 43.582-34.194-49.305-191.695a15.204 15.204 0 0 0-23.144-8.874l-25.387 16.88a15.204 15.204 0 0 0-6.324 16.379Z" class="colorf7cbc6 svgShape"/></clipPath><clipPath id="n"><path fill="#f7cbc6" d="m1959.659 754.538 31.542 200.11-8.176 9-53.505-14.345-29.885-195.665a15.204 15.204 0 0 1 17.804-17.245l29.975 5.563a15.204 15.204 0 0 1 12.245 12.582Z" class="colorf7cbc6 svgShape"/></clipPath><clipPath id="o"><path fill="#5566ad" d="m1400.585 869.658 260.54-169.684 347.386 61.46 44.091 386.333-260.539 162.805-332.69-73.485-58.788-367.429z" class="color5566ad svgShape"/></clipPath><clipPath id="p"><path fill="none" d="m1463.121 815.302 47.896 189.97 10.69 4.904 42.147-33.069-47.683-185.388a14.704 14.704 0 0 0-22.382-8.581l-24.552 16.325a14.704 14.704 0 0 0-6.116 15.839Z"/></clipPath><clipPath id="q"><path fill="none" d="m1916.82 736.271 30.504 193.527-7.907 8.705-51.745-13.874-28.902-189.228a14.704 14.704 0 0 1 17.219-16.677l28.988 5.38a14.704 14.704 0 0 1 11.842 12.167Z"/></clipPath></defs><path fill="#fee9e4" d="M2659.058 590.663a876.631 876.631 0 0 0 310.677 144.21c262.166 63.665 685.53 246.849 426.721 748.385-361.881 701.28-1847.741 749.006-2000.746-186.553-141.052-862.469 730.252-1095.623 1263.348-706.042Z" class="colorfee9e4 svgShape"/><ellipse cx="2294.436" cy="2541.312" fill="#f7cbc6" rx="1091.635" ry="126.147" class="colorf7cbc6 svgShape"/><path fill="#f58d4e" d="M1361.119 2065.295h549.917v349.049l-111.959 75.738h-516.988v-339.171l79.03-85.616z" class="colorf58d4e svgShape"/><g clip-path="url(#a)" fill="#000000" class="color000 svgShape"><path fill="#d86d32" d="m1253.704 2162.909 532.201-2.119v368.571l157.444-104.56V2007.75l-591.625-21.913-98.02 177.072z" class="colord86d32 svgShape"/></g><path fill="none" stroke="#eaa481" stroke-linecap="round" stroke-miterlimit="10" stroke-width="4" d="M1311.526 2160.79h474.379v299.655M1785.905 2160.79l105.373-75.737" class="colorStrokeeaa481 svgStroke"/><path fill="#e27030" d="M1338.068 2206.89h115.252v29.636h-115.252zM1342.262 2260.524h107.574v17.165h-107.574z" class="colore27030 svgShape"/><path fill="#ffffff" d="m1604.246 2065.295-91.109 95.495v99.734h110.868v-97.615l92.206-97.614h-111.965z" opacity=".42" class="colorfff svgShape"/><path fill="#e27030" d="M1637.177 2364.828h103.183v19.759h-103.183z" class="colore27030 svgShape"/><path fill="#db9382" d="M2222.584 732.147c-21.956 0-65.95 18.493-58.53 72.027s58.53 106.864 58.53 106.864" class="colordb9382 svgShape"/><path fill="#db9382" d="M2221.47 911.038s51.109-53.33 58.53-106.864-36.573-72.027-58.53-72.027" class="colordb9382 svgShape"/><circle cx="2222.161" cy="788.262" r="23.454" fill="#ffffff" class="colorfff svgShape"/><path fill="#db9382" d="M1326.239 1650.053c-36.161 0-108.617 30.457-96.395 118.626 12.221 88.168 96.395 175.998 96.395 175.998" class="colordb9382 svgShape"/><path fill="#db9382" d="M1324.405 1944.678s84.174-87.83 96.395-176c12.222-88.168-60.234-118.625-96.395-118.625" class="colordb9382 svgShape"/><circle cx="1325.542" cy="1742.471" r="38.628" fill="#ffffff" transform="rotate(-45 1325.542 1742.471)" class="colorfff svgShape"/><path fill="#f5934f" d="M2684.366 2362.774v82.167h77.016v-70.015l-77.016-12.152z" class="colorf5934f svgShape"/><path fill="#21387f" d="M2661.558 2470.613s-23.869-29.172 7.638-42.009 74.682-28.005 77.016-5.834l2.334 22.171s14.003-11.669 31.506 0-5.834 91.02-5.834 91.02l-215.88 8.79c-21.707.885-35.287-23.46-22.884-41.297 10.215-14.69 24.921-26.913 45.056-24.48 46.677 5.642 81.048-8.36 81.048-8.36Z" class="color21387f svgShape"/><g clip-path="url(#b)" fill="#000000" class="color000 svgShape"><path d="M2532.314 2522.88c23.77 12.306 52.17 9.98 78.76 6.895 48.921-5.676 97.711-12.883 146.87-15.882 8.49-.518 18.208-.434 23.905 5.881 8.036 8.907 1.495 24.324-9.248 29.66s-23.44 3.811-35.385 2.727c-58.433-5.305-117.287 2.975-175.916.697-7.793-.303-15.785-.841-22.88-4.078s-13.196-9.759-13.75-17.538M2661.498 2462.793c-2.977-4.379-1.474-10.638 2.03-14.606s8.54-6.177 13.415-8.24q22.59-9.563 45.472-18.416c3.62-1.4 8.031-2.693 11.107-.324a10.372 10.372 0 0 1 3.02 4.846 52.965 52.965 0 0 1 3.227 17.105c.066 3.13-.066 6.533 1.791 9.052 3.166 4.294 9.648 3.358 14.958 2.85a47.997 47.997 0 0 1 21.387 2.85c3.855 1.452 8.343 3.364 11.817 1.151 2.304-1.467 3.3-4.364 3.456-7.09.43-7.528-4.18-14.35-8.964-20.177a171.348 171.348 0 0 0-35.08-32.274c-13.14-9.066-28.676-16.494-44.514-14.486-14.183 1.798-26.483 10.998-35.696 21.93a99.519 99.519 0 0 0-16.787 28.444c-2.974 7.758-4.554 17.61 1.326 23.48M2598.054 2480.667l18.58 28.539c1.301 2 3.734 4.26 5.678 2.875a4.167 4.167 0 0 0 1.351-2.416c2.974-10.937-1.09-23.15-9.133-31.136s-19.573-11.935-30.907-11.997M2632.963 2478.504A59.173 59.173 0 0 0 2644.9 2499c2.65-12.76-5.704-26.847-18.172-30.641" fill="#000000" class="color000 svgShape"/></g><path fill="#21387f" d="M2980.762 2371.426s-38.509 36.174-18.671 51.344 31.819 39.675-5.679 47.843-63.169 29.173-60.835 57.18c1.852 22.23 99.297 9.167 139.401 2.834a63.089 63.089 0 0 0 32.395-15.431c17.925-16.144 43.816-45.059 33.58-70.255-15.17-37.341-40.841-67.68-40.841-67.68s18.67-54.846-79.35-5.835Z" class="color21387f svgShape"/><g clip-path="url(#c)" fill="#000000" class="color000 svgShape"><path d="M2888.654 2522.629c12.474 5.758 26.62 6.52 40.358 6.55 38.392.088 76.603-4.78 114.686-9.638 4.873-.622 9.866-1.28 14.214-3.566 7.22-3.795 11.478-11.374 15.51-18.464q11.07-19.468 23.762-37.952a143.978 143.978 0 0 1 13.716-17.649c.972-1.028 2.12-2.1 3.535-2.13 2.588-.055 3.812 3.14 4.179 5.703 4.078 28.498-7.75 58.754-30.077 76.929-11.934 9.715-26.312 15.965-40.908 20.843-5.558 1.857-11.232 3.545-17.076 3.99-9.217.702-18.346-1.706-27.509-2.928-19.668-2.623-39.622.227-59.193 3.5-8.437 1.41-16.985 2.905-25.499 2.076s-17.151-4.305-22.313-11.126c-3.368-4.45-4.133-12.307 1.033-14.418M2946.023 2402.765c-.688 8.52.5 17.463 5.08 24.682s13.004 12.339 21.501 11.395c10.978-1.22 23.792-.776 34.758-2.092 21.88-2.626 25.882-3.617 37.676-12.399 27.525-20.493 21.622-45.155 29.713-49.74s1.346-1.854 1.714-11.147c.294-7.432-3.853-14.564-9.648-19.227s-13.063-7.138-20.358-8.595c-23.298-4.653-48.567.75-67.5 15.104s-31.03 37.565-31.248 61.322" fill="#000000" class="color000 svgShape"/><path d="M2937.777 2474.618a78.427 78.427 0 0 1 37.309 14.78 3.893 3.893 0 0 0 2.79 1.103 3.785 3.785 0 0 0 2.07-1.552 11.878 11.878 0 0 0 2.943-5.088 7.819 7.819 0 0 0-2.362-6.674 19.534 19.534 0 0 0-6.185-3.905c-12.662-5.692-27.998-7.965-40.12-1.198M2971.635 2462.833a83.907 83.907 0 0 0 15.124 5.26 3.918 3.918 0 0 0 2.125.107c1.87-.612 1.787-3.347.885-5.095-2.324-4.505-7.357-7.103-12.378-7.8s-10.11.217-15.098 1.128" fill="#000000" class="color000 svgShape"/></g><path fill="#f5934f" d="m2951.589 2332.918 20.377 62.588a30.487 30.487 0 0 0 24.813 20.817c14.695 2.004 33.833 1.238 43.066-13.269a29.554 29.554 0 0 0 3.092-23.873c-13.704-48.525-19-70.769-19-70.769Z" class="colorf5934f svgShape"/><path d="M2947.878 2353.119c5.761 16.935 23.903 27.291 41.73 28.784 10.926.915 22.213-.992 31.793-6.327s17.318-14.233 20.371-24.765c3.267-11.268 1.094-23.433-2.686-34.54-3.12-9.167-7.74-18.456-15.964-23.57-8.04-5-18.233-5.15-27.534-3.386a76.272 76.272 0 0 0-38.868 20.29c-5.917 5.793-10.937 12.684-13.538 20.544s-2.612 16.76 1.017 24.201" clip-path="url(#d)" fill="#000000" class="color000 svgShape"/><path fill="#653e3a" d="M2687.98 1608.691s-28.879 367.56-26.253 430.57 13.042 359.683 13.042 359.683 41.926-23.629 91.892 10.502 9.132-317.677 21.673-414.817 16.45-160.151 16.45-160.151 8.703 157.525 31.276 212.66 95.983 304.548 95.983 304.548 65.738 49.883 112.995-28.88c-26.254-191.655-77.078-312.576-77.078-312.576v-26.103l-1.201-28.88 1.201-314.891Z" class="color653e3a svgShape"/><g clip-path="url(#e)" fill="#000000" class="color000 svgShape"><path d="M2726.31 1688.406c-2.235 90.544-15.28 180.269-24.453 270.252-4.61 45.213-8.24 90.572-8.94 136.032-.695 45.087 2.454 89.796 7.441 134.58 5.699 51.167 12.287 102.455 10.217 154.05-.084 2.092 3.167 2.088 3.25 0 1.828-45.555-3.08-90.929-8.196-136.126-5.113-45.174-9.54-90.236-9.584-135.748-.087-90.448 12.265-180.233 22.026-269.976 5.533-50.876 10.225-101.88 11.488-153.064.052-2.092-3.198-2.09-3.25 0ZM2793.564 1676.21a274.846 274.846 0 0 0 12.995 117.823c.668 1.97 3.809 1.124 3.134-.864a272.589 272.589 0 0 1-12.879-116.959c.225-2.076-3.027-2.06-3.25 0ZM2861.62 1688.757c13.51 92.963 10.071 187.234 19.083 280.586 8.63 89.398 32.411 175.85 62.634 260.185 16.975 47.367 35.742 94.064 54.523 140.737.771 1.916 3.916 1.08 3.134-.864-33.445-83.112-66.967-166.532-90.128-253.22a900.071 900.071 0 0 1-25.613-134.204c-5.08-46.353-6.721-92.987-8.582-139.553-2.063-51.64-4.478-103.336-11.918-154.531-.3-2.062-3.432-1.185-3.134.864ZM2966.978 1844.098a553.321 553.321 0 0 1-12.763 145.364c-5.44 24.322-12.012 51.813 1.806 72.555 5.931 8.902 14.913 15.208 22.994 22.216a150.8 150.8 0 0 1 42.904 62.635c9.658-9.604 12.763-24.265 11.535-37.83s-6.235-26.453-10.79-39.29a647.714 647.714 0 0 1-37.121-225.633M2797.995 1929.891c-6.032 18.917-16.486 36.068-24.63 54.176s-14.062 38.227-10.208 57.705c4.122 20.837 18.911 38.417 22.74 59.31 2.65 14.465.082 30.45 7.66 43.054 16.387-57.51-2.35-118.986 2.324-178.603 1.345-17.163 4.64-34.161 5.239-51.366" fill="#000000" class="color000 svgShape"/></g><path fill="#ff921f" d="M3046.413 1532.183c-33.59 11.202-53.369 15.473-64.991 16.68-7.317.771-11.413.333-13.688-.367-2.205-.665-2.678-.63-2.608-.07 4.463 34.675 1.33 14.86 7.229 59.303 1.137 8.506 2.608 19.359 4.516 33.414-65.744 86.783-287.516 1.313-287.516 1.313s-10.502 5.251-13.198-49.886c-1.96-40.293-1.05-98.79-.437-127.391a42.06 42.06 0 0 1-5.636 11.167c-5.742 8.279-15.789 17.609-33.048 26.903a190.64 190.64 0 0 1-10.694 5.304c-45.23 20.724-63.416-38.351-70.068-73.359a89.948 89.948 0 0 1 2.398-43.006c16.944-55.557 65.937-214.7 82.215-252.228 19.797-45.668 158.619-43.602 158.619-43.602l121.738-.018s91.037 13.146 125.169 64.624c34.115 51.478 78.75 344.963 0 371.219Z" class="colorff921f svgShape"/><path fill="#e56d00" d="m2664.674 1535.747 14.546-271.891s143.104 69.276 273.827 9.763c-1.678 64.306 3.206 98.192 2.195 118.896a12.073 12.073 0 0 1-20.408 8.136l-41.437-39.663-127.14 19.677 7.664 86.991 46.152 37.395 145.053 43.375 4.75 37.498s-257.995 11.67-305.202-50.177Z" clip-path="url(#f)" class="colore56d00 svgShape"/><path d="m2640.824 1325.589.061-.214-.072.21.011.004zM2799.506 1377.427s38.508-10.503 59.512 0c38.508-19.838 37.342 17.503 61.847 26.839s33.84 0 33.84 0-19.237-191.992 32.584-243.302c-61.846 71.182-48.629 236.3-48.629 236.3s-33.84-58.082-60.242-45.378-78.912 25.54-78.912 25.54ZM2967.734 1544.995c4.463 34.675-1.278 18.292 4.62 62.734-79.291-14.476-212.197-133.554-93.941-79.765 37.65 17.119 47.224 15.7 89.32 17.031Z" fill="#000000" class="color000 svgShape"/><path d="M2981.422 1548.864c-7.317.77-11.413.332-13.688-.368 4.2.123 8.734.245 13.688.368ZM2675.807 1218.726l3.413 246.453c-5.74 8.279-24.925 28.776-42.184 38.07-17.573-46.542 38.771-284.523 38.771-284.523ZM2778.5 1148.763a64.781 64.781 0 0 0 64.177 59.348 1.626 1.626 0 0 0 0-3.25 61.473 61.473 0 0 1-60.927-56.098c-.18-2.067-3.432-2.086-3.25 0ZM2763.093 1121.806a135.26 135.26 0 0 0-1.235 57.036c2.835 14.527 7.7 35.693 22.903 42.193 1.902.813 3.56-1.986 1.64-2.806-14.817-6.335-19.205-27.933-21.763-42.137a131.273 131.273 0 0 1 1.588-53.422c.48-2.034-2.652-2.902-3.134-.864ZM2958.523 1411.56a71.983 71.983 0 0 1 37.641 53.836c.283 2.063 3.415 1.185 3.134-.864a74.97 74.97 0 0 0-39.134-55.777c-1.85-.975-3.494 1.829-1.64 2.806ZM2968.024 1407.231c8.464-9.032 21.506-10.925 33.304-11.451a109.72 109.72 0 0 1 38.187 5.214c1.998.635 2.853-2.502.864-3.134a111.955 111.955 0 0 0-43.062-5.076c-11.479.942-23.418 3.427-31.59 12.15-1.43 1.524.864 3.827 2.298 2.297ZM2772.136 1445.817a46.803 46.803 0 0 0 44.868 55.17c2.092.06 2.09-3.19 0-3.25a43.507 43.507 0 0 1-41.734-51.056c.36-2.046-2.772-2.924-3.134-.864Z" fill="#000000" class="color000 svgShape"/><path fill="#e56d00" d="M2861.085 764.088s84.635-37.601 151.012 51.87c24.82 3.56 14.444 33.77 14.444 33.77s3.433 104.074-55.78 130.304-109.676-215.944-109.676-215.944Z" class="colore56d00 svgShape"/><path d="M3007.363 853.403c-7.43 21.04-16.195 44.27-37.45 54.867-1.872.934-.228 3.738 1.64 2.807 22.024-10.98 31.238-34.992 38.944-56.81.698-1.976-2.44-2.826-3.133-.864ZM2996.499 822.161a54.315 54.315 0 0 0-35.916 6.068c-1.835 1.006-.197 3.814 1.64 2.807a50.746 50.746 0 0 1 33.412-5.74c2.045.355 2.924-2.776.864-3.135ZM2964.897 978.63s.065-193.047-124.162-234.298-50.792 113.79-50.792 113.79Z" fill="#000000" class="color000 svgShape"/><path fill="#f5934f" d="M2961.397 991.178c-9.504 22.475-63.87 32.68-63.87 32.68s-5.55 4.446 1.452 61.333c-42.009 63.013-93.644 29.914-93.644 29.914s9.171-27.796 14.738-52.022c2.398-10.502 4.113-20.321 4.113-26.938a40.315 40.315 0 0 1-17.469-.122c-37.913-9.067-44.53-77.35-42.219-97.356 2.626-22.755 30.632-109.03 30.632-109.03 164.535-69.648 149.762 113.406 140.905 132.66 24.505-7.877 34.884 6.406 25.362 28.881Z" class="colorf5934f svgShape"/><path d="M2815.595 808.923a51.692 51.692 0 0 0-25.7 24.953c-3.73 7.915-5.57 17.146-.11 24.737 12.286 17.078 7.305 3.927 20.986-16.152.895 28.995 18.217 41.767 43.72 40.597s7.453 3.978.33-14.782c31.195 17.808 65.723 14.063 72.63 33.458s4.183 43.353-2.183 63.863 10.538 13.487 31.132-.014c16.124-10.57-41.049-201.33-140.805-156.66Z" clip-path="url(#g)" fill="#000000" class="color000 svgShape"/><path fill="#212866" d="M2817.928 799.138a51.692 51.692 0 0 0-25.7 24.952c-3.73 7.915-5.57 17.147-.11 24.737 12.285 17.079 7.305 3.928 20.986-16.152.895 28.995 18.217 41.768 43.72 40.598s7.453 3.978.329-14.783c31.196 17.809 65.724 14.064 72.63 33.46s4.184 43.351-2.182 63.861 10.538 13.488 31.132-.013c16.123-10.57-41.049-201.331-140.805-156.66Z" class="color212866 svgShape"/><path fill="none" stroke="#000" stroke-linecap="round" stroke-miterlimit="10" stroke-width="4" d="M2873.986 890.532s24.416-2.626 28.792 10.502M2828.387 881.754s-5.251-17.392-28.881-12.621" class="colorStroke000 svgStroke"/><ellipse cx="2805.34" cy="907.327" rx="14.548" ry="9.335" transform="rotate(-67.572 2805.34 907.327)" fill="#000000" class="color000 svgShape"/><path d="M2881.359 931.601c-3.066 7.427-9.414 11.853-14.18 9.886s-6.144-9.583-3.079-17.01 9.414-11.852 14.18-9.885 6.144 9.582 3.079 17.009ZM2803.298 943.043s.584 10.502 16.045 12.544-10.502-10.502-16.045-12.544Z" fill="#000000" class="color000 svgShape"/><path fill="none" stroke="#000" stroke-linecap="round" stroke-miterlimit="10" stroke-width="4" d="M2792.796 969.299s14.586 24.797 50.76 17.795" class="colorStroke000 svgStroke"/><ellipse cx="2882.369" cy="966.735" fill="#df5f4a" rx="11.817" ry="26.04" transform="rotate(-67.572 2882.369 966.735)" class="colordf5f4a svgShape"/><path d="M2921.251 989.662a10.908 10.908 0 0 1 2.258-3.91c2.992-3.438 7.442-5.237 11.852-6.384a17.143 17.143 0 0 1 5.39-.717 7.203 7.203 0 0 1 4.884 2.128c1.256 1.38 1.643 3.748.307 5.05a5.476 5.476 0 0 1-2.346 1.133l-4.89 1.454a1.691 1.691 0 0 0-.998.576c-.273.42-.121.972-.138 1.473a2.778 2.778 0 0 1-1.503 2.205 6.874 6.874 0 0 1-2.678.706 28.159 28.159 0 0 1-5.588.032c-2.011-.19-4.333-.862-5.02-2.762M2803.298 1076.053l14.878 41.307-29.487 22.6-7.854-45.51 22.463-18.397zM2907.153 1064.694l-88.977 52.666 54.554 43.604 65.93-68.264-31.507-28.006z" fill="#000000" class="color000 svgShape"/><path fill="#f5934f" d="M2822.424 1412.918a27.863 27.863 0 0 0-13.547-34.946c-20.16-10.124-57.356-27.854-74.135-29.718-23.63-2.626-117.311 31.754-101.102 39.945s76.597-11.94 76.597-11.94-29.757 15.886-14.878 29.823 31.774 9.561 31.774 9.561l1.564 2.553a29.474 29.474 0 0 0 32.278 13.2s2.804 19.203 24.606 14.853c14.145-2.823 30.367-16.742 36.843-33.332Z" class="colorf5934f svgShape"/><g clip-path="url(#h)" fill="#000000" class="color000 svgShape"><path d="M2636.72 1390.06c27.34 1.215 53.876-8.437 79.393-18.328-5.169 8.339-13.977 13.568-21.5 19.865s-14.387 15.216-13.108 24.943a193.737 193.737 0 0 1-38.57-15.034c-4.214-2.188-8.904-5.428-8.872-10.176M2726.363 1418.008l6.646-13.857c.741-1.545 1.476-3.414.601-4.887a4.23 4.23 0 0 0-1.928-1.545 12.287 12.287 0 0 0-9.827.004 17.123 17.123 0 0 0-7.525 6.538 14.449 14.449 0 0 0-2.572 7.691 8.84 8.84 0 0 0 3.347 7.176 6.42 6.42 0 0 0 7.638.015c1.625-1.34-.658 3.628.622 1.955M2760 1432.915a17.781 17.781 0 0 1 4.082-13.117c.63-.743 1.372-1.585 1.224-2.548-.253-1.635-2.603-1.772-4.143-1.168-5.521 2.168-8.868 7.995-9.955 13.826a10.704 10.704 0 0 0 .363 6.372c.895 1.968 3.088 3.478 5.19 2.971 1.892-.456 3.114-2.322 3.693-4.18s-4.422 5.984-3.693 4.18M2785.652 1365.547a50.827 50.827 0 0 1 23.322 42.987c-.192 12.232-4.84 23.902-7.188 35.907-.237 1.213-.391 2.64.473 3.523.917.937 2.465.729 3.714.327 4.598-1.478 8.506-4.603 11.792-8.143a50.37 50.37 0 0 0-25.068-83.221" fill="#000000" class="color000 svgShape"/></g><path fill="#600000" d="m2434.992 1334.79 23.9-26.078s86.343 6.754 106.185 9.503 39.97 35.613 39.97 35.613 35.917 5.018 37.213 27.21 18.819 103.622 18.819 103.622l-20.369 20.07Z" class="color600000 svgShape"/><path fill="#990b0a" d="m2636.984 1504.958-67.634-9.96-19.01-2.8-79.186-104.638-35.743-47.225a5.158 5.158 0 0 1 5.023-8.191c26.939 4.883 88.01 15.175 109.906 12.585 28.427-3.378 29.32 30.491 47.698 28.741 14.826-1.4 39.838 86.188 48.993 120.198a9.047 9.047 0 0 1-10.047 11.29Z" class="color990b0a svgShape"/><path fill="#350303" d="M2530.753 1240.892h5.57a4.524 4.524 0 0 1 4.524 4.523v82.12a4.523 4.523 0 0 1-4.523 4.523h-5.57a4.523 4.523 0 0 1-4.524-4.523v-82.12a4.524 4.524 0 0 1 4.523-4.523Z" transform="rotate(-11.877 2533.54 1286.475)" class="color350303 svgShape"/><path fill="#ffffff" stroke="#000" stroke-linecap="round" stroke-miterlimit="10" stroke-width="4" d="M2479.845 1119.414s36.113 77.777 46.062 129.455" class="colorfff svgShape colorStroke000 svgStroke"/><circle cx="2475.25" cy="1117.415" r="5.907" fill="#000000" class="color000 svgShape"/><path d="M2866.65 1024.435s-18.484 40.539-46.577 38.648c2.398-10.502 4.113-20.321 4.113-26.938-6.46 1.278 42.464-11.71 42.464-11.71ZM2878.264 969.748l24.505-8.314c1.97-.668 1.125-3.808-.864-3.134l-24.505 8.314c-1.97.669-1.124 3.81.864 3.134ZM2892.27 973.695l11.377-3.064a1.626 1.626 0 0 0-.864-3.133l-11.377 3.063a1.626 1.626 0 0 0 .864 3.134ZM2822.88 806.025a31.462 31.462 0 0 0-7.893 15.135c-.427 2.041 2.706 2.914 3.134.864a28.255 28.255 0 0 1 7.058-13.701c1.425-1.529-.868-3.832-2.298-2.298ZM2857.683 812.05c-9.348 12.18-4.332 27.672 5.56 37.726 1.468 1.493 3.766-.805 2.297-2.298-8.95-9.099-13.531-22.738-5.051-33.788 1.273-1.658-1.549-3.278-2.806-1.64ZM2892.064 829.021a56.468 56.468 0 0 0 16.526 29.65c1.515 1.441 3.817-.853 2.298-2.298a53.454 53.454 0 0 1-15.69-28.216c-.427-2.046-3.56-1.18-3.134.864Z" fill="#000000" class="color000 svgShape"/><path fill="#600000" d="M2577.121 1479.805q-3.886 7.588-7.771 15.193l-19.01-2.8-79.186-104.638a49.414 49.414 0 0 1 32.627-19.166c2.398-.298 4.971-.403 7.054.805 4.306 2.503 4.113 8.664 3.36 13.583q-1.759 11.631-3.535 23.245c5.373-.84 10.537-2.696 15.893-3.606 5.356-.892 11.202-.735 15.789 2.188 4.585 2.906 7.298 9.207 4.813 14.038-1.768 3.5-5.811 7.632-2.993 10.362 1.015.98 2.573 1.12 4.008 1.155 4.831.105 10.222-.28 13.88 2.888 6.074 5.27 2.626 15.876 7.107 22.563 2.888 4.288 8.717 6.319 10.555 11.15 1.627 4.27-.508 8.962-2.59 13.04Z" class="color600000 svgShape"/><path fill="#f5934f" d="M2473.937 1394.043s-21.88 26.927 0 43.518 5.251 7.614 28.006 23.48 14.878 21.991 31.507 26.367 34.662-7.944 30.432-22.444-19.93 0-19.93 0 22.408-6.488 10.766-18.715-19.593 3.526-40.358 6.152 32.217-28.006 19.09-36.758-40.26 12.253-40.26 12.253 4.377-13.444 3.502-33.853-22.755 0-22.755 0Z" class="colorf5934f svgShape"/><g clip-path="url(#i)" fill="#000000" class="color000 svgShape"><path d="M2490.54 1427.024c-2.936-1.338-4.233-4.8-4.704-7.992-1.69-11.486 3.505-22.768 4.913-34.292.285-2.33.824-5.212 3.081-5.858a3.785 3.785 0 0 1 3.726 1.331 9.213 9.213 0 0 1 1.748 3.751c1.524 5.624 1.631 11.52 1.728 17.346.143 8.608.059 17.946-5.176 24.781M2535.865 1415.898c-6.17 9.382-15.49 16.147-23.422 24.095-2.575 2.581-5.203 6.026-4.173 9.524a3.145 3.145 0 0 0 1.072 1.684c1.254.918 3.012.293 4.401-.406a66.186 66.186 0 0 0 21.058-16.741c2.489-2.993 4.76-6.314 5.614-10.11s.036-8.166-2.87-10.754M2558.797 1447.629a51.407 51.407 0 0 1-24.172 23.476c.423 1.343 2.243 1.502 3.639 1.328a39.714 39.714 0 0 0 26.353-15.152 12.217 12.217 0 0 0 2.774-5.833 7.38 7.38 0 0 0-4.274-7.386" fill="#000000" class="color000 svgShape"/></g><path fill="#5566ad" d="M1898.679 2106.457h549.917v349.049l-111.959 75.737h-516.988v-339.171l79.03-85.615z" class="color5566ad svgShape"/><path fill="#2c4277" d="M1782.524 2201.951h540.941v362.236l148.354-86.056 15.753-430.34-588.064 10.54-116.984 143.62z" clip-path="url(#j)" class="color2c4277 svgShape"/><path fill="none" stroke="#7c8dc1" stroke-linecap="round" stroke-miterlimit="10" stroke-width="4" d="M1849.087 2201.951h474.378v299.656M2323.465 2201.951l105.374-75.737" class="colorStroke7c8dc1 svgStroke"/><path fill="#364c91" d="M1875.629 2248.052h115.252v29.636h-115.252zM1879.822 2301.685h107.574v17.165h-107.574z" class="color364c91 svgShape"/><path fill="#ffffff" d="m2141.807 2106.457-91.109 95.494v99.734h110.867v-97.614l92.206-97.614h-111.964z" opacity=".31" class="colorfff svgShape"/><path fill="#364c91" d="M2174.737 2405.989h103.183v19.759h-103.183z" class="color364c91 svgShape"/><path d="M1973.886 2453.672a725.225 725.225 0 0 1 73.592-64.634c1.64-1.254.022-4.078-1.64-2.806a731.226 731.226 0 0 0-74.25 65.142 1.626 1.626 0 0 0 2.298 2.298ZM2021.588 2442.428l42.009-31.506c1.653-1.24.035-4.063-1.64-2.807l-42.01 31.507c-1.653 1.24-.035 4.063 1.64 2.806Z" fill="#000000" class="color000 svgShape"/><path fill="#cf443f" d="M1711.791 1852.197h438.445v278.295l-89.264 60.384H1648.78v-270.418l63.011-68.261z" class="colorcf443f svgShape"/><g clip-path="url(#k)" fill="#000000" class="color000 svgShape"><path fill="#af2828" d="m1626.39 1928.334 424.08 3.97v282.819l123.786-83.97v-304.747l-477.5 6.127-70.366 95.801z" class="coloraf2828 svgShape"/></g><path fill="none" stroke="#e58585" stroke-linecap="round" stroke-miterlimit="10" stroke-width="4" d="M1672.251 1928.334h378.219v238.913M2050.47 1928.334l84.014-60.385" class="colorStrokee58585 svgStroke"/><path fill="#e58585" d="M1693.413 1965.09h91.89v23.629h-91.89zM1696.756 2007.851h85.768v13.685h-85.768z" class="colore58585 svgShape"/><path fill="#e58585" d="m1875.629 1852.197-82.078 76.137-1.247 262.542h107.204v-260.792l77.832-77.887h-101.711z" opacity=".5" class="colore58585 svgShape"/><ellipse cx="1385.131" cy="672.617" fill="#f7cbc6" opacity=".58" rx="154.043" ry="96.934" class="colorf7cbc6 svgShape"/><ellipse cx="2015.193" cy="616.4" fill="#f7cbc6" opacity=".58" rx="138.441" ry="87.116" class="colorf7cbc6 svgShape"/><ellipse cx="1785.691" cy="395.705" fill="#f7cbc6" opacity=".58" rx="235.01" ry="130.661" transform="rotate(-8.215 1785.691 395.705)" class="colorf7cbc6 svgShape"/><path fill="#f7cbc6" d="m1412.619 672.617 141.752 18.14 23.422-44.721-161.616 7.586-3.558 18.995zM1990.323 639.895l-150.589 25.272-23.423-44.72h160.197l13.815 19.448zM1656.606 642.807l107.366-185.938h52.339l-66.024 163.578-93.681 22.36z" class="colorf7cbc6 svgShape"/><ellipse cx="1700.125" cy="665.484" fill="#f7cbc6" rx="159.57" ry="58.716" transform="rotate(-9.71 1700.126 665.484)" class="colorf7cbc6 svgShape"/><path fill="#f7cbc6" d="M1599.677 697.91a15.114 15.114 0 0 0-3.88 19.456c11.694 20.6 44.528 60.057 121.598 50.802 62.914-7.555 88.035-57.977 96.728-83.052a15.031 15.031 0 0 0-9.34-19.223c-33.13-11.148-122.418-31.802-205.106 32.018Z" class="colorf7cbc6 svgShape"/><ellipse cx="2003.242" cy="619.358" fill="#f7cbc6" rx="48.035" ry="17.675" transform="rotate(-2.059 2003.246 619.359)" class="colorf7cbc6 svgShape"/><path fill="#f7cbc6" d="M1971.974 625.006a4.55 4.55 0 0 0-1.937 5.65c2.663 6.614 10.878 19.702 34.242 20.03 19.073.267 28.59-13.77 32.188-20.902a4.525 4.525 0 0 0-2.017-6.11c-9.437-4.654-35.248-14.394-62.476 1.332Z" class="colorf7cbc6 svgShape"/><ellipse cx="1389.76" cy="659.436" fill="#f7cbc6" rx="48.035" ry="17.675" transform="rotate(-7.048 1389.76 659.436)" class="colorf7cbc6 svgShape"/><path fill="#f7cbc6" d="M1359.102 667.782a4.55 4.55 0 0 0-1.44 5.796c3.23 6.358 12.55 18.682 35.855 16.977 19.024-1.392 27.284-16.203 30.248-23.621a4.525 4.525 0 0 0-2.54-5.911c-9.806-3.816-36.366-11.275-62.123 6.76Z" class="colorf7cbc6 svgShape"/><ellipse cx="1790.551" cy="452.034" fill="#f7cbc6" rx="60.431" ry="22.237" transform="rotate(-9.71 1790.551 452.034)" class="colorf7cbc6 svgShape"/><path fill="#f7cbc6" d="M1752.51 464.315a5.724 5.724 0 0 0-1.47 7.368c4.43 7.802 16.864 22.744 46.051 19.24 23.827-2.862 33.34-21.957 36.633-31.454a5.693 5.693 0 0 0-3.538-7.28c-12.546-4.222-46.361-12.044-77.676 12.126ZM1299.195 697.781c18.169 33.802 60.375 52.694 97.688 43.726M1675.822 364.151c-14.09 11.158-27.111 24.223-35.224 40.262s-10.847 35.421-4.31 52.164c7.651 19.593 28.29 33.333 49.319 32.832M1434.024 719.01a63.309 63.309 0 0 0 26.669-21.562M1722.735 394.405a155.53 155.53 0 0 1 124.312-18.967c16.452 4.57 33.103 12.77 41.596 27.582M1911.05 352.308c12.73 2.324 25.46 6.768 35.088 15.414s15.623 22.1 12.844 34.738c-2.575 11.709-11.903 20.718-21.712 27.61a132.482 132.482 0 0 1-43.065 19.859M1814.47 316.985a162.647 162.647 0 0 1 108.338 6.23M1947.99 582.55c2.842-5.14 8.768-7.656 14.376-9.401a124.039 124.039 0 0 1 63.323-2.656M2076.015 613.39c6.546 9.435 3.533 24.093-6.204 30.18" class="colorf7cbc6 svgShape"/><path fill="#f7cbc6" d="M2094.566 603.406c9.54 2.4 14.792 13.645 13.312 23.37s-8.048 17.918-15.31 24.554a105.753 105.753 0 0 1-60.15 26.924M1425.862 892.463l269.403-175.458 359.205 63.552 45.591 399.475-269.403 168.344-344.008-75.986-60.788-379.927z" class="colorf7cbc6 svgShape"/><path fill="#f7cbc6" d="m1425.862 892.463 269.403-175.458 359.205 63.552 45.591 399.475-269.403 168.344-344.008-75.986-60.788-379.927z" class="colorf7cbc6 svgShape"/><path fill="#f7cbc6" d="m1460.855 1291.67 302.107-183.685 351.806 74.604-265.454 200.783-388.459-91.702z" clip-path="url(#l)" class="colorf7cbc6 svgShape"/><path fill="#f7cbc6" d="m1525.334 1257.193 237.628-149.208 320.52 66.315M1695.265 736.347l67.697 371.638M1757.581 769.953l4.087 40.853 108.679 15.026-1.537-40.028-111.229-15.851zM1936.205 1044.465l4.087 40.853 108.679 15.026-1.537-40.028-111.229-15.851z" class="colorf7cbc6 svgShape"/><path fill="#f7cbc6" d="m1460.855 869.673 50.664 230.671 151.971-87.686-56.845-237.936-145.79 94.951z" opacity=".5" class="colorf7cbc6 svgShape"/><path fill="#f7cbc6" d="m1871.557 747.711 34.345 214.792 68.777 16.715-42.216-220.731-60.906-10.776zM1557.871 806.487l53.012 197.601-48.711 40.377-50.835-208.699 46.534-29.279z" class="colorf7cbc6 svgShape"/><path fill="#f7cbc6" d="m1490.526 836.257 49.526 196.434 11.052 5.07 43.582-34.194-49.305-191.695a15.204 15.204 0 0 0-23.144-8.874l-25.387 16.88a15.204 15.204 0 0 0-6.324 16.379Z" class="colorf7cbc6 svgShape"/><path fill="#f7cbc6" d="m1490.526 836.257 49.526 196.434 11.052 5.07 43.582-34.194-49.305-191.695a15.204 15.204 0 0 0-23.144-8.874l-25.387 16.88a15.204 15.204 0 0 0-6.324 16.379Z" class="colorf7cbc6 svgShape"/><path fill="#f7cbc6" d="m1519.909 769.953 58.762 224.89-47.903 49.622 18.522 11.916 84.226-65.157-79.822-229.256-33.785 7.985z" clip-path="url(#m)" class="colorf7cbc6 svgShape"/><path fill="#f7cbc6" d="m1959.659 754.538 31.542 200.11-8.176 9-53.505-14.345-29.885-195.665a15.204 15.204 0 0 1 17.804-17.245l29.975 5.563a15.204 15.204 0 0 1 12.245 12.582Z" class="colorf7cbc6 svgShape"/><path fill="#f7cbc6" d="m1959.659 754.538 31.542 200.11-8.176 9-53.505-14.345-29.885-195.665a15.204 15.204 0 0 1 17.804-17.245l29.975 5.563a15.204 15.204 0 0 1 12.245 12.582Z" class="colorf7cbc6 svgShape"/><path fill="#f7cbc6" d="m1899.456 708.644 36.749 228.889 54.996 17.115-13.987 23.303-65.157-25.339-34.427-126.78 21.826-117.188z" clip-path="url(#n)" class="colorf7cbc6 svgShape"/><ellipse cx="1754.837" cy="2800.487" fill="#f7cbc6" rx="241.887" ry="59.513" class="colorf7cbc6 svgShape"/><path fill="#f7cbc6" d="M2007.066 1320.767c65.618 68.56 94.49 162.056 151.947 236.485 26.995 34.969 60.506 64.988 101.692 82.027 38.712 16.016 84.003 19.232 122.332.309 35.786-17.668 61.03-57.532 48.85-97.924-10.096-33.475-51.33-55.165-83.409-36.889-14.187 8.083-26.372 29.233-10.005 41.902a15.684 15.684 0 0 0 19.28.13c5.14-4.098 7.044-10.906 7.598-17.194 1.516-17.205-7.51-34.785-15.012-49.725a251.877 251.877 0 0 0-31.341-47.662c-48.491-58.454-122.788-96.131-199.023-97.603a238.134 238.134 0 0 0-27.832 1.127c-4.125.405-4.167 6.909 0 6.5 69.949-6.854 140.647 18.57 193.158 64.674 25.927 22.763 47.436 50.536 62.126 81.803 6.376 13.57 14.952 30.61 10.462 45.996-2.267 7.768-10.344 12.311-16.907 5.522-7.696-7.962-2.507-19.177 4.54-25.434 12.846-11.407 31.908-12.212 47.406-6.392a53.933 53.933 0 0 1 33.357 37.33c10.386 40.056-17.517 76.681-53.333 91.303-37.203 15.188-79.508 10.056-115.446-6.183-37.917-17.134-68.888-45.622-94.017-78.374-50.973-66.438-79.21-147.228-131.373-212.878q-9.686-12.19-20.454-23.446c-2.898-3.028-7.49 1.573-4.596 4.596ZM1672.169 1401.075c7.278 40.03 3.622 81.968 16.177 121.052 11.1 34.556 36.396 61.474 70.502 74.15a113.077 113.077 0 0 0 57.29 5.66c4.12-.66 2.371-6.925-1.727-6.269-33.663 5.394-69.087-6.83-93.192-30.737-27.278-27.054-33.353-65.38-36.252-102.062-1.678-21.229-2.714-42.534-6.53-63.522-.747-4.11-7.013-2.369-6.268 1.728ZM1796.857 1375.6c2.187 43.811 41.17 81.228 85.095 81.375 4.183.014 4.189-6.486 0-6.5-40.275-.135-76.584-34.588-78.595-74.874-.208-4.163-6.71-4.188-6.5 0ZM2182.275 1031.94c51.355 21.576 111.856 17.47 160.75-8.778a178.866 178.866 0 0 0 37.84-27.267c3.055-2.87-1.548-7.46-4.596-4.597-50.563 47.508-128.384 61.213-192.266 34.374-3.851-1.618-5.533 4.67-1.728 6.268Z" class="colorf7cbc6 svgShape"/><ellipse cx="1361.193" cy="657.046" fill="#ffc97b" opacity=".58" rx="148.975" ry="93.745" class="colorffc97b svgShape"/><ellipse cx="1970.527" cy="602.678" fill="#ffc97b" opacity=".58" rx="133.886" ry="84.25" class="colorffc97b svgShape"/><ellipse cx="1748.576" cy="389.245" fill="#ffc97b" opacity=".58" rx="227.278" ry="126.362" transform="rotate(-8.215 1748.576 389.244)" class="colorffc97b svgShape"/><path fill="#e56d00" d="m1387.778 657.046 137.088 17.543 22.651-43.249-156.299 7.336-3.44 18.37zM1946.475 625.4l-145.635 24.441-22.652-43.249h154.926l13.361 18.808zM1623.737 628.217l103.833-179.821h50.618l-63.852 158.196-90.599 21.625z" class="colore56d00 svgShape"/><ellipse cx="1665.825" cy="650.147" fill="#ff921f" rx="154.32" ry="56.784" transform="rotate(-9.71 1665.824 650.147)" class="colorff921f svgShape"/><path fill="#891212" d="M1568.68 681.507a14.617 14.617 0 0 0-3.752 18.816c11.31 19.922 43.064 58.08 117.598 49.13 60.844-7.306 85.14-56.07 93.546-80.32a14.537 14.537 0 0 0-9.033-18.59c-32.04-10.781-118.39-30.756-198.358 30.964Z" class="color891212 svgShape"/><ellipse cx="1958.969" cy="605.539" fill="#ff921f" rx="46.455" ry="17.094" transform="rotate(-2.059 1958.97 605.539)" class="colorff921f svgShape"/><path fill="#891212" d="M1928.73 611.001a4.4 4.4 0 0 0-1.874 5.464c2.576 6.397 10.52 19.054 33.116 19.37 18.445.26 27.648-13.315 31.129-20.213a4.376 4.376 0 0 0-1.95-5.909c-9.128-4.5-34.09-13.92-60.422 1.288Z" class="color891212 svgShape"/><ellipse cx="1365.671" cy="644.298" fill="#ff921f" rx="46.455" ry="17.094" transform="rotate(-7.048 1365.672 644.299)" class="colorff921f svgShape"/><path fill="#891212" d="M1336.02 652.37a4.4 4.4 0 0 0-1.39 5.605c3.121 6.15 12.136 18.068 34.674 16.419 18.398-1.346 26.386-15.67 29.253-22.845a4.376 4.376 0 0 0-2.456-5.716c-9.484-3.69-35.17-10.904-60.08 6.537Z" class="color891212 svgShape"/><ellipse cx="1753.275" cy="443.72" fill="#ff921f" rx="58.443" ry="21.505" transform="rotate(-9.71 1753.276 443.72)" class="colorff921f svgShape"/><path fill="#891212" d="M1716.486 455.597a5.536 5.536 0 0 0-1.422 7.125c4.284 7.545 16.31 21.997 44.536 18.607 23.043-2.767 32.244-21.234 35.428-30.418a5.505 5.505 0 0 0-3.421-7.04c-12.134-4.084-44.836-11.648-75.121 11.726Z" class="color891212 svgShape"/><path fill="#ffffff" d="M1276.681 682.202c18.43 33.475 59.096 51.583 96.31 43.034 2.038-.468 1.175-3.602-.864-3.134-35.825 8.23-74.926-9.365-92.64-41.54-1.008-1.833-3.816-.195-2.806 1.64ZM1641.172 357.58c-23.29 18.602-45.062 44.884-41.973 76.672 2.6 26.75 25.718 47.415 52.585 47.239a1.626 1.626 0 0 0 0-3.25c-27.337.179-49.46-22.152-49.6-49.34-.15-28.961 19.913-51.951 41.286-69.023 1.634-1.305-.679-3.592-2.298-2.298ZM1409.299 703.316a64.832 64.832 0 0 0 26.374-21.436c1.23-1.694-1.588-3.318-2.807-1.64a61.802 61.802 0 0 1-25.208 20.27c-1.908.846-.256 3.647 1.64 2.806ZM1688.51 389.39a149.884 149.884 0 0 1 82.317-23.372c26.266.34 61.21 6.638 75.91 31.121 1.075 1.791 3.887.159 2.806-1.64-14.779-24.614-48.562-31.666-75.14-32.64a153.072 153.072 0 0 0-87.533 23.725c-1.759 1.12-.13 3.934 1.64 2.806ZM1869.378 348.841c12.446 2.374 25.136 6.578 34.41 15.606 8.624 8.396 13.962 21.373 10.168 33.28-3.78 11.864-14.297 20.112-24.399 26.554a129.231 129.231 0 0 1-36.47 15.836 1.626 1.626 0 0 0 .864 3.134 131.083 131.083 0 0 0 42.036-19.369c9.844-6.946 19.532-16.14 21.896-28.472 2.236-11.663-2.642-23.662-10.645-32.094-9.677-10.196-23.511-15.037-36.996-17.608-2.044-.39-2.92 2.741-.864 3.133ZM1776.839 314.68a157.465 157.465 0 0 1 103.91 6.027c1.929.803 2.77-2.34.864-3.134a160.33 160.33 0 0 0-105.638-6.026c-2.007.576-1.154 3.713.864 3.134ZM1906.938 570.763c3.323-5.24 9.16-7.258 14.846-8.924a116.881 116.881 0 0 1 20.133-4.022 120.904 120.904 0 0 1 38.328 2.031c2.04.434 2.912-2.698.864-3.133a124.324 124.324 0 0 0-43.591-1.592c-11.022 1.583-26.85 3.694-33.387 14-1.123 1.771 1.688 3.403 2.807 1.64ZM2027.944 600.588a19.928 19.928 0 0 1-5.417 26.964c-1.719 1.17-.094 3.987 1.64 2.806a23.21 23.21 0 0 0 6.583-31.41c-1.12-1.759-3.935-.13-2.806 1.64Z" class="colorfff svgShape"/><path fill="#ffffff" d="M2046.857 591.679c9.978 3.033 13.604 14.512 11.036 23.86-2.485 9.045-9.43 16.243-16.388 22.151a101.395 101.395 0 0 1-54.32 23.182c-2.056.229-2.079 3.481 0 3.25 23.46-2.602 46.5-12.869 62.952-30.052 6.732-7.032 12.555-16.26 11.805-26.375-.64-8.642-5.755-16.577-14.222-19.15-2.005-.61-2.862 2.526-.864 3.134Z" class="colorfff svgShape"/><path fill="#5566ad" d="m1400.585 869.658 260.54-169.684 347.386 61.46 44.091 386.333-260.539 162.805-332.69-73.485-58.788-367.429z" class="color5566ad svgShape"/><path fill="#2c4277" d="m1434.426 1255.732 292.168-177.641 340.232 72.149-256.721 194.177-375.679-88.685z" clip-path="url(#o)" class="color2c4277 svgShape"/><path fill="none" stroke="#818dd3" stroke-linecap="round" stroke-miterlimit="10" stroke-width="4" d="m1496.784 1222.39 229.81-144.299 309.975 64.132M1661.125 718.679l65.469 359.412" class="colorStroke818dd3 svgStroke"/><path fill="#3c4682" d="m1721.39 751.18 3.953 39.508 105.103 14.532-1.486-38.711-107.57-15.329zM1894.137 1016.66l3.953 39.509 105.103 14.531-1.486-38.71-107.57-15.33z" class="color3c4682 svgShape"/><path fill="#bac3f4" d="m1434.426 847.618 48.997 223.082 146.971-84.801-54.974-230.107-140.994 91.826z" opacity=".5" class="colorbac3f4 svgShape"/><path fill="#3c4682" d="m1831.616 729.669 33.215 207.725 66.515 16.166-40.828-213.47-58.902-10.421zM1528.251 786.512l51.267 191.099-47.108 39.049-49.162-201.833 45.003-28.315z" class="color3c4682 svgShape"/><path fill="#ff921f" d="m1463.121 815.302 47.896 189.97 10.69 4.904 42.147-33.069-47.683-185.388a14.704 14.704 0 0 0-22.382-8.581l-24.552 16.325a14.704 14.704 0 0 0-6.116 15.839Z" class="colorff921f svgShape"/><path fill="#e56d00" d="m1491.537 751.18 56.829 217.491-46.327 47.989 17.913 11.524 81.455-63.014-77.196-221.713-32.674 7.723z" clip-path="url(#p)" class="colore56d00 svgShape"/><path fill="#ff921f" d="m1916.82 736.271 30.504 193.527-7.907 8.705-51.745-13.874-28.902-189.228a14.704 14.704 0 0 1 17.219-16.677l28.988 5.38a14.704 14.704 0 0 1 11.842 12.167Z" class="colorff921f svgShape"/><path fill="#e56d00" d="m1858.597 691.888 35.54 221.358 53.187 16.552-13.527 22.536-63.013-24.505-33.295-122.609 21.108-113.332z" clip-path="url(#q)" class="colore56d00 svgShape"/></svg>